Coordinates
version=1
nRows=8
nColumns=63
inDegrees=yes

Units are S.I. units (second, meters, Newtons, ...)
If the header above contains a line with 'inDegrees', this indicates whether rotational values are in degrees (yes) or radians (no).

endheader
time	pelvis_tilt	pelvis_list	pelvis_rotation	pelvis_tx	pelvis_ty	pelvis_tz	hip_flexion_r	hip_adduction_r	hip_rotation_r	knee_angle_r	knee_angle_r_beta	ankle_angle_r	subtalar_angle_r	mtp_angle_r	hip_flexion_l	hip_adduction_l	hip_rotation_l	knee_angle_l	knee_angle_l_beta	ankle_angle_l	subtalar_angle_l	mtp_angle_l	L5_S1_Flex_Ext	L5_S1_Lat_Bending	L5_S1_axial_rotation	L4_L5_Flex_Ext	L4_L5_Lat_Bending	L4_L5_axial_rotation	L3_L4_Flex_Ext	L3_L4_Lat_Bending	L3_L4_axial_rotation	L2_L3_Flex_Ext	L2_L3_Lat_Bending	L2_L3_axial_rotation	L1_L2_Flex_Ext	L1_L2_Lat_Bending	L1_L2_axial_rotation	L1_T12_Flex_Ext	L1_T12_Lat_Bending	L1_T12_axial_rotation	Abs_r3	Abs_r2	Abs_r1	Abs_t1	Abs_t2	neck_flexion	neck_bending	neck_rotation	arm_flex_r	arm_add_r	arm_rot_r	elbow_flex_r	pro_sup_r	wrist_flex_r	wrist_dev_r	arm_flex_l	arm_add_l	arm_rot_l	elbow_flex_l	pro_sup_l	wrist_flex_l	wrist_dev_l
      2.35593220	     -2.99248729	      2.60351617	     87.00823867	      0.24869675	      0.91596092	      0.72728438	     10.61955767	     -4.20845093	     -2.39035137	     22.77582268	      0.39751310	     44.18383396	      1.68817595	      0.00000000	      6.62488110	      5.55823869	      7.96493005	     14.35277718	      0.25050322	     39.27365609	     -8.94856406	      0.00000000	     -0.17629364	     -0.30588324	      0.35926878	     -0.32739492	     -0.40682470	      0.38172308	     -0.28963283	     -0.74372450	      0.38172308	     -0.20148600	     -0.74372450	      0.31436018	     -0.16370628	     -0.62375709	      0.29190588	     -0.10073419	     -0.47381313	      0.26945158	     -1.25924786	     -3.46021234	      1.99814517	      0.00000000	      0.00000000	     25.83751252	     -2.38614647	     11.44593834	      7.29591665	    -12.41319213	    118.98603405	      9.89890551	      4.87336559	     -2.64269989	    -15.57603351	      4.15397217	    -16.77239227	     50.79965569	     22.72476706	     75.46756298	     -9.90089746	     -8.99398207
      2.37288136	     -3.02142013	      2.63390482	     86.77003797	      0.24922032	      0.91583427	      0.72810060	     10.85274144	     -4.13882366	     -1.95013564	     23.12058180	      0.40353028	     44.20322193	      1.39856457	      0.00000000	      6.84215177	      5.53573683	      7.35977631	     14.75321021	      0.25749209	     39.37588962	     -8.71394202	      0.00000000	     -0.18412150	     -0.30960848	      0.34245264	     -0.34193204	     -0.41177928	      0.36385593	     -0.30249321	     -0.75278206	      0.36385593	     -0.21043246	     -0.75278206	      0.29964606	     -0.17097522	     -0.63135362	      0.27824277	     -0.10520702	     -0.47958354	      0.25683948	     -1.31516146	     -3.50235307	      1.90461886	      0.00000000	      0.00000000	     25.90499174	     -2.44301324	     11.78825815	      7.48583637	    -12.41395623	    118.69634347	     10.27606251	      5.38435421	     -3.47530203	    -15.61839953	      4.08795686	    -16.66103935	     49.79194763	     22.74838284	     75.44994246	     -9.62455060	     -8.57087257
      2.38983051	     -2.99038093	      2.61479212	     86.62094813	      0.24955451	      0.91576917	      0.72881614	     11.08943561	     -4.09593840	     -2.00391994	     23.37754801	      0.40801518	     44.33003329	      1.67739449	      0.00000000	      7.14492457	      5.39358336	      6.29323834	     15.22035153	      0.26564525	     39.64310126	     -7.73132523	      0.00000000	     -0.18251371	     -0.30255065	      0.31457513	     -0.33894622	     -0.40239236	      0.33423607	     -0.29985178	     -0.73562164	      0.33423607	     -0.20859492	     -0.73562164	      0.27525323	     -0.16948223	     -0.61696128	      0.25559229	     -0.10428834	     -0.46865095	      0.23593134	     -1.30367721	     -3.42251342	      1.74957248	      0.00000000	      0.00000000	     26.06788358	     -2.68542963	     12.26416523	      7.71950991	    -12.23087782	    121.03257453	     10.07429253	      5.21120565	     -4.30129118	    -15.67778767	      4.07363290	    -16.44232456	     48.59956919	     22.67614091	     75.85604085	     -8.97380938	     -7.67369464
      2.40677966	     -2.87639646	      2.57963481	     86.48705663	      0.24968350	      0.91585840	      0.72938060	     11.30723158	     -3.94567839	     -1.93163055	     23.56023204	      0.41120362	     44.41271381	      1.74284792	      0.00000000	      7.43874240	      5.27028944	      6.03565967	     15.68115611	      0.27368780	     39.74904568	     -7.81292424	      0.00000000	     -0.17670694	     -0.28162440	      0.30825144	     -0.32816246	     -0.37456045	      0.32751716	     -0.29031183	     -0.68474157	      0.32751716	     -0.20195836	     -0.68474157	      0.26972001	     -0.16409006	     -0.57428848	      0.25045430	     -0.10097035	     -0.43623620	      0.23118858	     -1.26220000	     -3.18579155	      1.71440206	      0.00000000	      0.00000000	     26.28513891	     -3.16971783	     12.68878163	      7.91142748	    -11.95546323	    125.11327228	      9.39831670	      4.85028010	     -5.20130347	    -15.62701761	      4.42555228	    -16.17282012	     49.21899786	     22.27577319	     75.10774513	     -8.28520586	     -6.75486282
      2.42372881	     -2.71844686	      2.54102782	     86.38117335	      0.24958893	      0.91607854	      0.72977645	     11.50013917	     -3.75160507	     -1.82471356	     23.71005374	      0.41381850	     44.42734777	      1.68265246	      0.00000000	      7.68212792	      5.20137588	      6.47012429	     16.06182436	      0.28033172	     39.75250365	     -8.73001663	      0.00000000	     -0.16996199	     -0.25163493	      0.32868380	     -0.31563640	     -0.33467445	      0.34922653	     -0.27923055	     -0.61182517	      0.34922653	     -0.19424955	     -0.61182517	      0.28759832	     -0.15782670	     -0.51313395	      0.26705558	     -0.09711628	     -0.38978250	      0.24651285	     -1.21402146	     -2.84654464	      1.82804067	      0.00000000	      0.00000000	     26.58505819	     -3.87338350	     13.04119838	      8.01272937	    -11.69014165	    129.93153782	      8.54200178	      4.54597030	     -6.18494486	    -15.39426092	      5.20399651	    -15.89325857	     52.23953035	     21.55895207	     72.82750095	     -7.76059510	     -6.05278440
      2.44067797	     -2.56251813	      2.46503242	     86.12411057	      0.24979024	      0.91631795	      0.73015449	     11.75388618	     -3.57776450	     -1.84333148	     23.85911147	      0.41642005	     44.47597182	      2.02373881	      0.00000000	      8.03162795	      4.83162418	      4.76478627	     16.55990428	      0.28902485	     40.50515731	     -6.86582125	      0.00000000	     -0.15695981	     -0.22402846	      0.39747245	     -0.29149006	     -0.29795785	      0.42231448	     -0.25786926	     -0.54470280	      0.42231448	     -0.17938936	     -0.54470280	      0.34778840	     -0.14575288	     -0.45683884	      0.32294637	     -0.08968683	     -0.34702008	      0.29810434	     -1.12114820	     -2.53425475	      2.21062254	      0.00000000	      0.00000000	     26.85588927	     -4.47481915	     13.30795402	      7.98354801	    -11.40531913	    134.97245123	      7.48576240	      4.12242525	     -6.60672216	    -14.90900705	      6.39562629	    -15.61219928	     58.04024083	     20.41874513	     68.41324595	     -7.42143550	     -6.00402290
      2.45762712	     -2.42413497	      2.43651518	     86.26863788	      0.24947111	      0.91660119	      0.73019429	     11.82539069	     -3.51871852	     -2.32276267	     23.92029358	      0.41748788	     44.59095546	      2.44197242	      0.00000000	      8.19128447	      4.80211742	      5.35902662	     16.82104535	      0.29358262	     40.73150460	     -7.57047630	      0.00000000	     -0.14857394	     -0.20089326	      0.37293856	     -0.27591666	     -0.26718803	      0.39624722	     -0.24409212	     -0.48845187	      0.39624722	     -0.16980515	     -0.48845187	      0.32632124	     -0.13796576	     -0.40966153	      0.30301258	     -0.08489515	     -0.31118366	      0.27970392	     -1.06124877	     -2.27254471	      2.07417239	      0.00000000	      0.00000000	     27.01966786	     -5.00550101	     13.52432147	      7.96331286	    -11.17411619	    139.41465488	      6.63790579	      3.66410622	     -6.78028754	    -14.20348511	      6.90812424	    -15.37954098	     60.05176738	     20.01107626	     68.50571681	     -6.95343796	     -5.16712524
      2.47457627	     -2.29330950	      2.39300826	     86.28881148	      0.24938787	      0.91682995	      0.73038638	     11.94570542	     -3.45243708	     -2.76249073	     23.98575393	      0.41863038	     44.66056356	      2.98185048	      0.00000000	      8.40286338	      4.69190841	      5.40729309	     17.13690536	      0.29909542	     41.09629169	     -7.62854745	      0.00000000	     -0.14167284	     -0.18111735	      0.36907911	     -0.26310062	     -0.24088608	      0.39214656	     -0.23275430	     -0.44036873	      0.39214656	     -0.16191788	     -0.44036873	      0.32294422	     -0.13155739	     -0.36933450	      0.29987678	     -0.08095186	     -0.28055078	      0.27680933	     -1.01195490	     -2.04883569	      2.05270730	      0.00000000	      0.00000000	     27.11372663	     -5.29013985	     13.70547231	      7.99193000	    -11.10502747	    141.42683420	      6.27805455	      3.52278224	     -6.48880469	    -13.57173049	      7.46655618	    -15.14630987	     62.60872053	     19.52531417	     67.92260274	     -6.90893515	     -4.83672226
